<svg width="100" height="100" viewBox="0 0 100 100" fill="none" xmlns="http://www.w3.org/2000/svg">
<circle cx="50" cy="50" r="50" fill="#FF5646"/>
<path d="M34.13 55.0241C34.13 55.1241 33.88 55.3541 33.38 55.7141C32.88 55.9941 32.41 56.1341 31.97 56.1341C31.73 56.1341 31.46 55.9241 31.16 55.5041L29.72 52.6241C29.04 51.1041 28.15 49.3041 27.05 47.2241C25.97 45.1241 24.8 43.0341 23.54 40.9541L19.07 48.7541L26.63 48.6941C26.85 48.6941 26.99 48.7741 27.05 48.9341C27.05 49.0941 26.54 49.2641 25.52 49.4441L18.38 49.9841C16.92 52.2641 15.37 54.4241 13.73 56.4641C12.09 58.5041 10.84 59.5241 9.98001 59.5241C9.68001 59.5241 9.21001 59.2541 8.57001 58.7141C7.99001 58.1741 7.70001 57.7441 7.70001 57.4241C7.70001 57.3241 7.76001 57.2441 7.88001 57.1841L8.45001 57.4241C8.65001 57.5041 8.93001 57.5841 9.29001 57.6641C9.93001 57.6641 11.07 56.8741 12.71 55.2941C14.37 53.6941 15.81 51.9641 17.03 50.1041L15.53 50.1341L14.27 50.1641C13.35 50.1641 12.62 50.0141 12.08 49.7141C11.58 49.3941 11.33 48.7841 11.33 47.8841C11.33 47.7041 11.37 47.6041 11.45 47.5841L11.99 47.9141C12.41 48.0941 13.07 48.2741 13.97 48.4541C14.45 48.5341 14.99 48.5941 15.59 48.6341C16.21 48.6741 16.98 48.6941 17.9 48.6941C20.16 45.2341 21.9 42.4641 23.12 40.3841C22.94 40.0241 22.66 39.7241 22.28 39.4841C21.9 39.2241 21.43 38.9841 20.87 38.7641C20.33 38.5241 19.95 38.2941 19.73 38.0741C19.79 37.8941 20.1 37.8041 20.66 37.8041C22.24 37.8041 23.49 38.0341 24.41 38.4941C24.75 38.6541 25.32 39.4641 26.12 40.9241C26.94 42.3841 27.92 44.3241 29.06 46.7441C30.22 49.1641 31.17 51.0841 31.91 52.5041C32.51 53.6041 33.08 54.3641 33.62 54.7841C33.9 54.7841 34.07 54.8641 34.13 55.0241Z" fill="black"/>
<path d="M36.7602 46.5941C36.7602 46.4741 36.8402 46.4141 37.0002 46.4141C37.2402 46.4141 37.4302 46.4341 37.5702 46.4741L38.5302 46.7741C38.9302 46.8941 39.1602 47.1241 39.2202 47.4641L39.0402 50.9741L38.8902 54.2441L38.9202 55.3241L38.9502 56.3141C38.9502 56.4141 38.8502 56.4941 38.6502 56.5541L38.2002 56.5241C38.1402 56.5041 38.0702 56.4841 37.9902 56.4641C37.9302 56.4641 37.7902 56.4041 37.5702 56.2841C37.3702 56.1841 37.2602 55.9941 37.2402 55.7141V50.0441C37.2402 49.6041 37.2402 49.1541 37.2402 48.6941C37.1802 48.3941 37.1302 48.0741 37.0902 47.7341C37.0502 47.3741 36.9802 47.1141 36.8802 46.9541L36.7602 46.5941ZM37.4202 40.3241C37.7002 40.3241 38.0002 40.4041 38.3202 40.5641C38.7202 40.6841 38.9302 40.8141 38.9502 40.9541C39.0102 41.0141 39.0402 41.6841 39.0402 42.9641C39.0402 43.5041 38.9702 43.7741 38.8302 43.7741C38.1702 43.7741 37.6802 43.5541 37.3602 43.1141C37.2402 42.8141 37.1802 41.9441 37.1802 40.5041C37.1802 40.3841 37.2602 40.3241 37.4202 40.3241Z" fill="black"/>
<path d="M52.0499 51.5741C52.0499 51.7541 49.2199 51.8441 43.5599 51.8441C43.1999 51.8441 42.8899 51.7141 42.6299 51.4541C42.3899 51.1741 42.2699 50.9141 42.2699 50.6741C42.3499 50.5541 42.4099 50.4841 42.4499 50.4641H51.5399C51.5799 50.5041 51.6099 50.5341 51.6299 50.5541C51.7299 50.6541 51.8199 50.8041 51.8999 51.0041C51.9999 51.2041 52.0499 51.3941 52.0499 51.5741Z" fill="black"/>
<path d="M75.26 44.9441C75.26 47.0641 74.59 48.8741 73.25 50.3741C71.93 51.8541 70.27 53.0641 68.27 54.0041C67.41 54.3841 66.49 54.7441 65.51 55.0841C64.53 55.4041 63.5 55.6941 62.42 55.9541L59.84 56.4041L57.86 56.5541C55.24 56.5541 53.93 55.8641 53.93 54.4841C53.93 54.3241 54.01 54.2141 54.17 54.1541L55.19 54.5141L56.18 54.7841L57.35 54.9041L57.44 46.9841L57.56 39.2141C57.1 39.2741 56.84 39.3141 56.78 39.3341C56.54 39.4341 56.34 39.5041 56.18 39.5441C56.02 39.5841 55.86 39.6341 55.7 39.6941C55.56 39.7341 55.3 39.8341 54.92 39.9941L53.54 40.5341C53.34 40.5341 53.12 40.4241 52.88 40.2041C52.64 39.9841 52.52 39.7441 52.52 39.4841C52.52 39.2441 53.12 38.9741 54.32 38.6741L55.88 38.3441L57.5 38.0741V37.5041C57.5 37.2441 57.52 37.1041 57.56 37.0841C57.6 37.0441 57.63 37.0241 57.65 37.0241C57.81 36.9441 57.9 36.9041 57.92 36.9041C58.26 36.9041 58.67 37.0041 59.15 37.2041C59.63 37.3841 59.9 37.6241 59.96 37.9241L61.04 37.8941L62.39 37.8641C64.69 37.8641 66.78 38.0841 68.66 38.5241C70.54 38.9441 72.11 39.6841 73.37 40.7441C74.63 41.7841 75.26 43.1841 75.26 44.9441ZM72.5 45.7541C72.5 43.5141 71.85 41.7741 70.55 40.5341C69.25 39.2941 66.95 38.6741 63.65 38.6741L61.64 38.7641L59.96 38.9141L59.6 43.7141L59.21 49.6241L58.91 55.0841C60.43 55.0841 61.82 54.9941 63.08 54.8141C64.36 54.6141 65.49 54.3241 66.47 53.9441C68.51 53.1641 70.02 52.0741 71 50.6741C72 49.2541 72.5 47.6141 72.5 45.7541Z" fill="black"/>
<path d="M88.3203 51.6341C88.3203 50.3341 87.8503 49.3941 86.9103 48.8141C85.9903 48.2341 84.9603 47.9441 83.8203 47.9441C82.7003 47.9441 81.6803 48.3041 80.7603 49.0241C79.8403 49.7241 79.3803 50.6141 79.3803 51.6941C79.3803 52.8341 79.8703 53.7441 80.8503 54.4241C81.8303 55.1041 82.8803 55.4441 84.0003 55.4441C85.2003 55.4441 86.2203 55.0841 87.0603 54.3641C87.9003 53.6441 88.3203 52.7341 88.3203 51.6341ZM85.1703 47.0441C86.4703 47.0441 87.6303 47.2941 88.6503 47.7941C89.6903 48.2741 90.2103 49.1941 90.2103 50.5541C90.2103 51.3141 89.9503 52.1341 89.4303 53.0141C88.9303 53.8741 88.0603 54.6541 86.8203 55.3541C85.5803 56.0341 84.0703 56.3741 82.2903 56.3741C79.0903 56.3741 77.4903 55.1841 77.4903 52.8041C77.4903 51.2441 78.2703 49.8941 79.8303 48.7541C81.3903 47.6141 83.1703 47.0441 85.1703 47.0441Z" fill="black"/>
<path fill-rule="evenodd" clip-rule="evenodd" d="M34.63 54.9334V55.0241C34.63 55.2257 34.5208 55.3738 34.4817 55.4254C34.4247 55.5006 34.3535 55.5729 34.281 55.6395C34.1341 55.7747 33.9276 55.9359 33.6722 56.1198L33.6491 56.1364L33.6243 56.1503C33.0716 56.4598 32.5176 56.6341 31.97 56.6341C31.7002 56.6341 31.467 56.5162 31.2805 56.3712C31.0933 56.2256 30.9185 56.0262 30.7531 55.7947L30.7303 55.7628L29.268 52.838L29.2636 52.8282C28.7829 51.7536 28.195 50.5352 27.4995 49.1724C27.4244 49.3394 27.2857 49.4371 27.226 49.4757C27.1097 49.5509 26.9675 49.6086 26.8256 49.6559C26.5349 49.7528 26.1233 49.8453 25.6069 49.9364L25.5825 49.9408L18.666 50.4639C17.2362 52.6812 15.7208 54.7857 14.1197 56.7773C13.2895 57.81 12.5421 58.6051 11.8786 59.1464C11.2325 59.6737 10.59 60.0241 9.98001 60.0241C9.69742 60.0241 9.41193 59.9036 9.15345 59.7551C8.88252 59.5995 8.57954 59.3763 8.24758 59.0962L8.23824 59.0883L8.2293 59.08C7.92444 58.7962 7.67725 58.5245 7.50298 58.2661C7.33375 58.0152 7.20001 57.7281 7.20001 57.4241C7.20001 57.0694 7.43455 56.8478 7.65641 56.7368L7.86209 56.634L8.63968 56.9614C8.79286 57.0223 9.0208 57.0898 9.33391 57.1614C9.50249 57.1424 9.82503 57.0176 10.3402 56.6606C10.8787 56.2874 11.5518 55.7156 12.3631 54.934C13.7583 53.5892 14.9945 52.1523 16.0722 50.6233L15.5419 50.6339L15.54 50.634L14.27 50.6642C13.3035 50.6642 12.4791 50.5077 11.8372 50.1511L11.8236 50.1436L11.8105 50.1352C11.1028 49.6823 10.83 48.8611 10.83 47.8841C10.83 47.7674 10.8415 47.6241 10.8958 47.4884C10.9553 47.3395 11.0871 47.1594 11.3287 47.099L11.532 47.0482L12.2188 47.4679C12.5911 47.6224 13.1966 47.7892 14.0601 47.9622C14.5185 48.0382 15.0389 48.0962 15.6225 48.1351C16.1672 48.1702 16.8357 48.1899 17.6297 48.1935C19.725 44.9811 21.3607 42.3795 22.5384 40.3864C22.409 40.2081 22.2364 40.0479 22.013 39.9068L22.0053 39.9019L21.9977 39.8967C21.6565 39.6633 21.2222 39.4396 20.6872 39.2294L20.677 39.2254L20.6669 39.221C20.112 38.9743 19.6631 38.7143 19.3765 38.4276L19.158 38.2091L19.2557 37.9159C19.3656 37.5861 19.6655 37.4502 19.8681 37.3914C20.0898 37.327 20.362 37.3041 20.66 37.3041C22.2775 37.3041 23.613 37.5378 24.6292 38.0446C24.7967 38.125 24.9455 38.2581 25.0728 38.3938C25.2082 38.5382 25.3513 38.7205 25.5014 38.9338C25.8016 39.3604 26.1539 39.9456 26.5572 40.6814C27.385 42.1555 28.37 44.1061 29.5116 46.5295C29.5119 46.53 29.5121 46.5305 29.5123 46.531L29.06 46.7441L29.5109 46.5279C29.5111 46.5284 29.5114 46.5289 29.5116 46.5295C30.6691 48.9442 31.6154 50.8566 32.3512 52.2688C32.3505 52.2674 32.3497 52.266 32.349 52.2646L31.9101 52.504L32.3534 52.273C32.3527 52.2716 32.3519 52.2702 32.3512 52.2688C32.892 53.2595 33.3826 53.9187 33.8132 54.2953C33.7463 54.2873 33.6811 54.2841 33.62 54.2841V54.7841L33.927 54.3894C33.8895 54.3602 33.8516 54.3289 33.8132 54.2953C34.1167 54.3317 34.4551 54.4669 34.5982 54.8485L34.63 54.9334ZM26.12 40.9241C25.32 39.4641 24.75 38.6541 24.41 38.4941C23.49 38.0341 22.24 37.8041 20.66 37.8041C20.4861 37.8041 20.3363 37.8127 20.2106 37.8301C20.0744 37.8489 19.9665 37.8779 19.887 37.9171C19.8035 37.9582 19.7512 38.0105 19.73 38.0741C19.8254 38.1694 19.9509 38.2667 20.1064 38.3659C20.3096 38.4953 20.5643 38.6282 20.87 38.7641C21.43 38.9841 21.9 39.2241 22.28 39.4841C22.66 39.7241 22.94 40.0241 23.12 40.3841C21.9 42.4641 20.16 45.2341 17.9 48.6941C16.98 48.6941 16.21 48.6741 15.59 48.6341C14.99 48.5941 14.45 48.5341 13.97 48.4541C13.07 48.2741 12.41 48.0941 11.99 47.9141L11.45 47.5841C11.389 47.5993 11.3513 47.6611 11.3368 47.7693C11.3323 47.8031 11.33 47.8413 11.33 47.8841C11.33 47.9579 11.3317 48.0298 11.3351 48.0998C11.3727 48.8822 11.621 49.4203 12.08 49.7141C12.62 50.0141 13.35 50.1641 14.27 50.1641L15.53 50.1341L17.03 50.1041C16.9185 50.2741 16.8051 50.4431 16.6899 50.611C15.5449 52.2793 14.2182 53.8403 12.71 55.2941C11.07 56.8741 9.93001 57.6641 9.29001 57.6641C8.93001 57.5841 8.65001 57.5041 8.45001 57.4241L7.88001 57.1841C7.76001 57.2441 7.70001 57.3241 7.70001 57.4241C7.70001 57.4701 7.706 57.5183 7.71799 57.5689C7.72587 57.6021 7.73635 57.6364 7.74943 57.6716C7.85471 57.9553 8.12824 58.3027 8.57001 58.7141C9.21001 59.2541 9.68001 59.5241 9.98001 59.5241C10.84 59.5241 12.09 58.5041 13.73 56.4641C15.37 54.4241 16.92 52.2641 18.38 49.9841L25.52 49.4441C26.005 49.3585 26.3747 49.2751 26.6291 49.1941C26.6288 49.1942 26.6294 49.194 26.6291 49.1941C26.6304 49.1937 26.6327 49.1929 26.634 49.1925C26.6395 49.1908 26.6449 49.189 26.6503 49.1872C26.9168 49.1002 27.05 49.0158 27.05 48.9341C26.99 48.7741 26.85 48.6941 26.63 48.6941L19.07 48.7541L23.54 40.9541C23.639 41.1174 23.7374 41.2809 23.8353 41.4444C24.9833 43.3625 26.0549 45.289 27.05 47.2241C28.15 49.3041 29.04 51.1041 29.72 52.6241L31.16 55.5041C31.46 55.9241 31.73 56.1341 31.97 56.1341C32.41 56.1341 32.88 55.9941 33.38 55.7141C33.88 55.3541 34.13 55.1241 34.13 55.0241M23.55 41.9422L19.9368 48.2472L26.63 48.194C26.7587 48.194 26.8973 48.2118 27.0312 48.2642C26.8939 48.0003 26.7528 47.7315 26.608 47.4578L26.6053 47.4527C25.6569 45.6085 24.6385 43.7716 23.55 41.9422ZM26.6828 48.6361C26.682 48.6366 26.6812 48.6371 26.6801 48.6378C26.6908 48.6294 26.6938 48.629 26.6828 48.6361ZM36.2602 46.6752V46.5941C36.2602 46.4121 36.3284 46.2029 36.5202 46.0591C36.6849 45.9355 36.8721 45.9141 37.0002 45.9141C37.2607 45.9141 37.5034 45.935 37.7075 45.9933L37.7194 45.9967L38.6768 46.296C38.933 46.3733 39.1692 46.4959 39.3562 46.683C39.5483 46.8751 39.6659 47.1127 39.7126 47.3772L39.7224 47.433L39.5396 50.997L39.5395 50.9997L39.3905 54.2486L39.42 55.3102L39.4502 56.3065V56.3141C39.4502 56.5569 39.3199 56.7336 39.1875 56.8395C39.0658 56.9369 38.9214 56.9947 38.7938 57.033L38.7072 57.059L38.1029 57.0187L38.0421 56.9984C38.0041 56.9858 37.9574 56.972 37.901 56.9573C37.791 56.9413 37.6943 56.9005 37.6432 56.8786C37.5543 56.8405 37.4512 56.7885 37.3376 56.7268C36.9443 56.5258 36.7701 56.1507 36.7414 55.7497L36.7402 55.7319V48.743C36.6816 48.4429 36.6328 48.126 36.5936 47.7925L36.5932 47.7893C36.5553 47.4475 36.4946 47.2805 36.4562 47.2191L36.4246 47.1686L36.2602 46.6752ZM37.2402 48.6941V55.7141C37.2602 55.9941 37.3702 56.1841 37.5702 56.2841C37.7902 56.4041 37.9302 56.4641 37.9902 56.4641C38.0702 56.4841 38.1402 56.5041 38.2002 56.5241L38.6502 56.5541C38.8502 56.4941 38.9502 56.4141 38.9502 56.3141L38.9202 55.3241L38.8902 54.2441L39.0402 50.9741L39.2202 47.4641C39.1602 47.1241 38.9302 46.8941 38.5302 46.7741L37.5702 46.4741C37.4302 46.4341 37.2402 46.4141 37.0002 46.4141C36.8402 46.4141 36.7602 46.4741 36.7602 46.5941L36.8802 46.9541C36.9802 47.1141 37.0502 47.3741 37.0902 47.7341C37.1302 48.0741 37.1802 48.3941 37.2402 48.6941ZM36.9191 43.3577L36.8959 43.2997C36.8027 43.0667 36.7558 42.6983 36.7264 42.271C36.6952 41.8196 36.6802 41.2292 36.6802 40.5041C36.6802 40.3221 36.7484 40.1129 36.9402 39.9691C37.1049 39.8455 37.2921 39.8241 37.4202 39.8241C37.7831 39.8241 38.1466 39.9241 38.5047 40.0976C38.7063 40.1602 38.8917 40.2341 39.0408 40.3264C39.1641 40.4027 39.3476 40.5443 39.4206 40.7755C39.4216 40.7777 39.4224 40.7798 39.4232 40.7817C39.4396 40.8213 39.45 40.8582 39.4567 40.8852C39.4701 40.9397 39.4791 40.9982 39.4858 41.0522C39.4994 41.1628 39.5095 41.3074 39.5172 41.4792C39.5327 41.8256 39.5402 42.322 39.5402 42.9641C39.5402 43.2447 39.5231 43.4988 39.4717 43.697C39.4465 43.794 39.403 43.9195 39.3167 44.0304C39.2191 44.156 39.0538 44.2741 38.8302 44.2741C38.0486 44.2741 37.3904 44.0057 36.9558 43.4081L36.9191 43.3577ZM38.9502 40.9541C38.9302 40.8141 38.7202 40.6841 38.3202 40.5641C38.0002 40.4041 37.7002 40.3241 37.4202 40.3241C37.2602 40.3241 37.1802 40.3841 37.1802 40.5041C37.1802 41.9441 37.2402 42.8141 37.3602 43.1141C37.6802 43.5541 38.1702 43.7741 38.8302 43.7741C38.9702 43.7741 39.0402 43.5041 39.0402 42.9641C39.0402 41.6841 39.0102 41.0141 38.9502 40.9541ZM42.2627 51.794L42.2502 51.7794C41.9725 51.4554 41.7699 51.083 41.7699 50.6741V50.5227L41.8538 50.3967C41.8995 50.3282 41.947 50.2624 41.9952 50.2062C42.0323 50.1629 42.1115 50.0742 42.2262 50.0168L42.3318 49.9641H51.747L51.9834 50.2005C52.1451 50.3622 52.2642 50.5733 52.3564 50.7993C52.4773 51.0467 52.5499 51.3067 52.5499 51.5741C52.5499 51.7578 52.4564 51.8838 52.3926 51.9467C52.3313 52.0071 52.2677 52.041 52.232 52.058C52.1584 52.0931 52.0814 52.113 52.0258 52.1254C51.9062 52.152 51.7486 52.1726 51.5667 52.1899C51.1966 52.2252 50.6531 52.2537 49.9432 52.2763C48.52 52.3216 46.391 52.3441 43.5599 52.3441C43.0641 52.3441 42.6278 52.1591 42.2763 51.8076L42.2627 51.794ZM51.8999 51.0041C51.8199 50.8041 51.7299 50.6541 51.6299 50.5541L51.5399 50.4641H42.4499C42.4099 50.4841 42.3499 50.5541 42.2699 50.6741C42.2699 50.9141 42.3899 51.1741 42.6299 51.4541C42.8899 51.7141 43.1999 51.8441 43.5599 51.8441C49.2199 51.8441 52.0499 51.7541 52.0499 51.5741C52.0499 51.3941 51.9999 51.2041 51.8999 51.0041ZM62.39 37.8641C64.69 37.8641 66.78 38.0841 68.66 38.5241C70.54 38.9441 72.11 39.6841 73.37 40.7441C74.63 41.7841 75.26 43.1841 75.26 44.9441C75.26 47.0641 74.59 48.8741 73.25 50.3741C71.93 51.8541 70.27 53.0641 68.27 54.0041C67.41 54.3841 66.49 54.7441 65.51 55.0841C64.53 55.4041 63.5 55.6941 62.42 55.9541L59.84 56.4041L57.86 56.5541C55.24 56.5541 53.93 55.8641 53.93 54.4841C53.93 54.3241 54.01 54.2141 54.17 54.1541L55.19 54.5141L56.18 54.7841L57.35 54.9041L57.44 46.9841L57.56 39.2141C57.3521 39.2412 57.1851 39.2642 57.0589 39.2831C56.9059 39.3061 56.8129 39.3231 56.78 39.3341C56.54 39.4341 56.34 39.5041 56.18 39.5441C56.02 39.5841 55.86 39.6341 55.7 39.6941C55.56 39.7341 55.3 39.8341 54.92 39.9941L53.54 40.5341C53.34 40.5341 53.12 40.4241 52.88 40.2041C52.64 39.9841 52.52 39.7441 52.52 39.4841C52.52 39.2441 53.12 38.9741 54.32 38.6741L55.88 38.3441L57.5 38.0741V37.5041C57.5 37.2441 57.52 37.1041 57.56 37.0841C57.6 37.0441 57.63 37.0241 57.65 37.0241C57.81 36.9441 57.9 36.9041 57.92 36.9041C58.26 36.9041 58.67 37.0041 59.15 37.2041C59.63 37.3841 59.9 37.6241 59.96 37.9241L61.04 37.8941L62.39 37.8641ZM60.2813 37.4149L61.0289 37.3942L62.39 37.3639C64.7203 37.3639 66.8485 37.5868 68.7715 38.0366C70.7145 38.471 72.3596 39.2413 73.6898 40.3597C75.0737 41.5026 75.76 43.0487 75.76 44.9441C75.76 47.1797 75.0495 49.1102 73.6229 50.7072C72.2532 52.2428 70.5366 53.4912 68.4827 54.4566L68.4721 54.4615C67.5984 54.8476 66.6655 55.2124 65.6739 55.5564L65.6652 55.5594C64.6717 55.8838 63.6289 56.1773 62.537 56.4402L62.5216 56.4439L59.902 56.9008L57.8789 57.0541H57.86C56.5224 57.0541 55.4422 56.8807 54.6795 56.4789C54.2907 56.2742 53.9725 56.0037 53.7531 55.6571C53.5325 55.3085 53.43 54.9114 53.43 54.4841C53.43 54.3176 53.4731 54.1423 53.5856 53.9875C53.6964 53.8352 53.8463 53.7415 53.9944 53.6859L54.1648 53.622L55.3392 54.0365L56.2719 54.2909L56.8563 54.3508L56.9401 46.9763L57.0511 39.7903C57.0106 39.7967 56.9788 39.8022 56.9547 39.8067C56.9476 39.8081 56.9418 39.8092 56.9372 39.8101C56.6998 39.9078 56.4861 39.9829 56.3013 40.0291C56.1603 40.0644 56.0184 40.1086 55.8756 40.1622L55.8567 40.1693L55.8374 40.1748C55.7307 40.2053 55.4975 40.2934 55.114 40.4549L55.1023 40.4598L53.6344 41.0341H53.54C53.1566 41.0341 52.8197 40.8271 52.5421 40.5726C52.2267 40.2835 52.02 39.918 52.02 39.4841C52.02 39.2054 52.1919 39.0168 52.3087 38.9175C52.4355 38.8097 52.5965 38.7213 52.7648 38.6456C53.106 38.4921 53.5904 38.3411 54.1987 38.189L54.2076 38.1868L55.7871 37.8526L57 37.6505V37.5041C57 37.3665 57.005 37.2386 57.02 37.1333C57.0273 37.0826 57.0398 37.0147 57.0656 36.946C57.0786 36.9113 57.1227 36.7962 57.2349 36.703C57.2627 36.6772 57.2964 36.6489 57.3352 36.623C57.3579 36.6079 57.4047 36.578 57.4704 36.555C57.534 36.5236 57.5892 36.4972 57.6344 36.4771C57.6614 36.4651 57.6915 36.4524 57.721 36.4417C57.7355 36.4364 57.7563 36.4292 57.7804 36.4228C57.7959 36.4187 57.8507 36.4041 57.92 36.4041C58.3492 36.4041 58.8253 36.5279 59.3342 36.7391C59.7157 36.8834 60.0717 37.0965 60.2813 37.4149ZM66.2892 53.4779L66.2914 53.477C68.264 52.7228 69.6817 51.6854 70.5904 50.3873L70.5912 50.3862C71.5276 49.0565 72 47.5187 72 45.7541C72 43.6148 71.3827 42.0193 70.2049 40.8959C69.0512 39.7954 66.923 39.1755 63.6612 39.1741L61.6735 39.2631L60.4269 39.3744L60.0989 43.747L60.0986 43.7514L59.7093 49.6515L59.7089 49.657L59.4384 54.5803C60.7317 54.5618 61.9206 54.4744 63.0061 54.3195C64.2571 54.1239 65.3501 53.842 66.2892 53.4779ZM63.08 54.8141C61.9598 54.9741 60.7367 55.063 59.4109 55.0807C59.2456 55.0829 59.0786 55.0841 58.91 55.0841L59.21 49.6241L59.6 43.7141L59.96 38.9141L61.64 38.7641L63.65 38.6741C66.95 38.6741 69.25 39.2941 70.55 40.5341C71.85 41.7741 72.5 43.5141 72.5 45.7541C72.5 47.6141 72 49.2541 71 50.6741C70.02 52.0741 68.51 53.1641 66.47 53.9441C65.49 54.3241 64.36 54.6141 63.08 54.8141ZM86.6478 49.2396L86.6437 49.237C85.8075 48.7098 84.8707 48.4441 83.8203 48.4441C82.8171 48.4441 81.9046 48.7635 81.0685 49.4178L81.0631 49.422C80.2572 50.0351 79.8803 50.7825 79.8803 51.6941C79.8803 52.6614 80.2826 53.4215 81.1354 54.0133C82.0374 54.6392 82.989 54.9441 84.0003 54.9441C85.0919 54.9441 85.9935 54.6199 86.7349 53.9844C87.4648 53.3588 87.8203 52.5871 87.8203 51.6341C87.8203 50.4715 87.4119 49.7111 86.6478 49.2396ZM80.7603 49.0241C79.8403 49.7241 79.3803 50.6141 79.3803 51.6941C79.3803 52.8341 79.8703 53.7441 80.8503 54.4241C81.8303 55.1041 82.8803 55.4441 84.0003 55.4441C85.2003 55.4441 86.2203 55.0841 87.0603 54.3641C87.9003 53.6441 88.3203 52.7341 88.3203 51.6341C88.3203 50.3341 87.8503 49.3941 86.9103 48.8141C85.9903 48.2341 84.9603 47.9441 83.8203 47.9441C82.7003 47.9441 81.6803 48.3041 80.7603 49.0241ZM86.8203 55.3541C85.5803 56.0341 84.0703 56.3741 82.2903 56.3741C79.0903 56.3741 77.4903 55.1841 77.4903 52.8041C77.4903 51.2441 78.2703 49.8941 79.8303 48.7541C81.3903 47.6141 83.1703 47.0441 85.1703 47.0441C86.4703 47.0441 87.6303 47.2941 88.6503 47.7941C89.6903 48.2741 90.2103 49.1941 90.2103 50.5541C90.2103 51.3141 89.9503 52.1341 89.4303 53.0141C88.9303 53.8741 88.0603 54.6541 86.8203 55.3541ZM89.8613 53.2676C89.3012 54.2297 88.351 55.0641 87.0661 55.7895L87.0608 55.7925C85.7304 56.522 84.133 56.8741 82.2903 56.8741C80.6429 56.8741 79.3164 56.5703 78.3919 55.8828C77.4397 55.1746 76.9903 54.1176 76.9903 52.8041C76.9903 51.0462 77.8808 49.5594 79.5353 48.3504C81.1841 47.1455 83.0683 46.5441 85.1703 46.5441C86.5335 46.5441 87.7688 46.8062 88.8653 47.3426C89.4695 47.6226 89.9406 48.0407 90.2556 48.598C90.5685 49.1516 90.7103 49.812 90.7103 50.5541C90.7103 51.429 90.4113 52.3365 89.8613 53.2676Z" fill="black"/>
</svg>
